inDegrees=no
num_controls=7
num_derivatives=13
num_iterations=156
num_multipliers=7
num_parameters=0
num_slacks=7
num_states=26
objective=0.451609
objective_accelerations=0.003502
objective_balance=0.009190
objective_effort=0.023463
objective_height=0.213507
objective_ligament=0.201947
solver_duration=1897.379874
status=Solve_Succeeded
success=true
DataType=double
version=3
OpenSimVersion=4.5
endheader
time	/jointset/ground_pelvis/pelvis_tilt/value	/jointset/ground_pelvis/pelvis_tx/value	/jointset/ground_pelvis/pelvis_ty/value	/jointset/hip_l/hip_flexion_l/value	/jointset/hip_l/hip_adduction_l/value	/jointset/hip_l/hip_rotation_l/value	/jointset/back/lumbar_extension/value	/jointset/patellofemoral_l/patellar_flexion_l/value	/jointset/knee_l/knee_flexion_l/value	/jointset/knee_l/knee_adduction_l/value	/jointset/knee_l/knee_rotation_l/value	/jointset/ankle_l/ankle_angle_l/value	/jointset/subtalar_l/subtalar_angle_l/value	/jointset/ground_pelvis/pelvis_tilt/speed	/jointset/ground_pelvis/pelvis_tx/speed	/jointset/ground_pelvis/pelvis_ty/speed	/jointset/hip_l/hip_flexion_l/speed	/jointset/hip_l/hip_adduction_l/speed	/jointset/hip_l/hip_rotation_l/speed	/jointset/back/lumbar_extension/speed	/jointset/patellofemoral_l/patellar_flexion_l/speed	/jointset/knee_l/knee_flexion_l/speed	/jointset/knee_l/knee_adduction_l/speed	/jointset/knee_l/knee_rotation_l/speed	/jointset/ankle_l/ankle_angle_l/speed	/jointset/subtalar_l/subtalar_angle_l/speed	/forceset/tau_hip_flexion_l	/forceset/tau_hip_adduction_l	/forceset/tau_hip_rotation_l	/forceset/tau_knee_flexion_l	/forceset/tau_ankle_angle_l	/forceset/tau_subtalar_angle_l	/forceset/tau_lumbar_extension	lambda_cid13_p0	lambda_cid13_p1	lambda_cid13_p2	lambda_cid13_p3	lambda_cid13_p4	lambda_cid13_p5	lambda_cid14_p0	/jointset/ground_pelvis/pelvis_tilt/accel	/jointset/ground_pelvis/pelvis_tx/accel	/jointset/ground_pelvis/pelvis_ty/accel	/jointset/hip_l/hip_flexion_l/accel	/jointset/hip_l/hip_adduction_l/accel	/jointset/hip_l/hip_rotation_l/accel	/jointset/back/lumbar_extension/accel	/jointset/patellofemoral_l/patellar_flexion_l/accel	/jointset/knee_l/knee_flexion_l/accel	/jointset/knee_l/knee_adduction_l/accel	/jointset/knee_l/knee_rotation_l/accel	/jointset/ankle_l/ankle_angle_l/accel	/jointset/subtalar_l/subtalar_angle_l/accel	gamma_cid13_p0	gamma_cid13_p1	gamma_cid13_p2	gamma_cid13_p3	gamma_cid13_p4	gamma_cid13_p5	gamma_cid14_p0
1.5	0.1799571055806713	0.1608457044130709	0.9413330536548288	-0.03489932781873904	-0.2387391270882412	-0.3551642999882263	-0.3839792778129778	0.2847809945713482	0.2847809945714145	-0.02827029217165617	-0.1744627567600033	0.2048247964157778	0.1522620536124433	-0.08382898293352251	-0.150447813800639	0.04607526387189326	-0.0001124013097348122	0.1375008963710549	-0.1282103233482006	-0.0002027355856504471	-0.575671739365485	-0.5756717393655427	0.04789647851792714	0.0001603946242919067	-0.4754355738926747	-0.07116232555403845	0.08406783067299595	0.006372051911073259	-0.007394320444879341	-0.1746575614739374	-0.03693816773260288	-0.001629488792405537	0.04971048921960439	-58.05816702428513	5.596260323662541	4.681088587589075	11.25172817041163	-700.6513993845682	-77.29631453904082	-23.22911646272521	-0.07410901650449875	-0.1812592589194713	-0.0557410300914544	-0.01498385467285845	0.02894320564008874	0.02689425295479451	-0.01310230768257226	-0.5635609147061041	-0.5635609147061638	-0.257473479962592	-0.002394176453381552	-0.5141888956738705	-0.1939290196483326	1.858994405678173e-09	-2.106602919919988e-08	-8.755431675607601e-10	-4.809388304456835e-09	-2.541331783078775e-08	-1.873257564222751e-08	1.178914567266241e-09
1.51	0.1791149988884097	0.1593322965191472	0.9417908828590488	-0.03490083241097024	-0.2373630428517233	-0.3564447542996105	-0.3839817390146602	0.278997035494653	0.2789970354947505	-0.02780462057364975	-0.1744612900512028	0.2000452747903756	0.1515405886241331	-0.0845924371846577	-0.1522206372644457	0.04547976428131607	-0.0001776394528982056	0.1376815962460944	-0.1278544988489082	-0.000280772529727891	-0.5810508126833355	-0.581050812683381	0.04519236956071928	0.0001338252986767284	-0.4804250551913484	-0.07314675588023153	0.08380921617397334	0.004501568825615857	-0.007283348060361773	-0.1741153965770764	-0.0326556581171706	-0.001594885931825775	0.04982243460239336	-56.65963620336793	5.376454289250177	4.670333966216327	10.76165486041953	-700.2081120228919	-77.85473144507546	-23.16293631700841	-0.07747529632549829	-0.1733253797832959	-0.06308086681962542	-0.0006617577490090724	0.00748071887241657	0.04383255087032937	-0.003844554314084396	-0.5146912122924113	-0.5146912122904584	-0.2837018270828523	-0.002656790941055757	-0.4847735705877073	-0.2031105534775307	6.528140723023194e-10	-1.596992113802783e-08	-3.170441543721471e-11	-3.772583172047115e-09	-2.362137166798025e-08	-1.664386144634918e-08	9.469350200480035e-10
1.52	0.178265255320249	0.1578015540926513	0.9422424317787076	-0.0349026629773625	-0.2359861821483629	-0.3577208691655102	-0.3839847186190926	0.273161363550385	0.2731613635505254	-0.0273673545099147	-0.1744600627317263	0.1952171691872619	0.1507987972296867	-0.0853563581120782	-0.1539147203150829	0.0448192069596416	-0.0001775961404883885	0.1376561897385996	-0.1273424342514648	-0.0003064161355502558	-0.586014312879902	-0.5860143128799343	0.04221537166419444	0.0001125167600430087	-0.4851523694349647	-0.07522760678133213	0.08355060167496581	0.002631085740142218	-0.007172375675800515	-0.1735732316801996	-0.02837314850173806	-0.001560283071267117	0.04993437998519148	-55.26572096153247	5.159614758599295	4.656641123653351	10.29206097388284	-699.8155385285066	-78.41810710099261	-23.0922881125958	-0.07420235176159728	-0.1655111762855514	-0.06875257631091324	-0.001927563558222708	-0.01227807086677378	0.05814227258498998	-0.00262364003145819	-0.4804462904493158	-0.4804462904491549	-0.3120512678259876	-0.00134201905709138	-0.4617554846623477	-0.2132131346298204	-8.063770719048783e-10	-1.153490520656163e-08	2.452765073289132e-09	-2.773717648601865e-09	-2.075348520344964e-08	-1.64671893149874e-08	4.891979507075986e-10
1.53	0.177407892888344	0.1562543106528953	0.9426870462588003	-0.03490417196745218	-0.2346106363701673	-0.3589911343168211	-0.3839875720763916	0.2672782886064089	0.2672782886065111	-0.02696119519227941	-0.1744590701012239	0.1903432360191499	0.150035753883424	-0.0861174370600629	-0.1555163232700926	0.04409180555011325	-0.0001054365469200118	0.1374134119332584	-0.1266832715127162	-0.0002395603322292207	-0.5905074184448681	-0.590507418444875	0.03897180506560616	8.555007163103362e-05	-0.4895739956460502	-0.0773945580573631	0.08319182607921294	0.0007284496811046265	-0.007061639567030421	-0.1729876137131531	-0.02396277269461124	-0.001499072048467054	0.0501449109649343	-53.82124737813204	4.926640299093452	4.640639305323092	9.723417808580267	-699.3548479193896	-78.98830162008085	-23.01711072903066	-0.07725725416370205	-0.1548384604840199	-0.07651936861444365	0.01460210430982609	-0.03621254659963642	0.07390087802370299	0.01504743970542477	-0.4197539526097531	-0.4197539526059467	-0.3372117525947271	-0.003441700692259974	-0.4233264899630612	-0.2204605462386	-2.534392202620376e-09	-7.802299662907913e-09	6.680404719655936e-09	-1.815162959681366e-09	-1.674241216833823e-08	-1.832206187717445e-08	-2.084064858876066e-10
